<svg xmlns="http://www.w3.org/2000/svg" xmlns:xlink="http://www.w3.org/1999/xlink" width="1024" height="1024" viewBox="0 0 1024 1024"><metadata><rdf:RDF xmlns:rdf="http://www.w3.org/1999/02/22-rdf-syntax-ns#" xmlns:dc="http://purl.org/dc/elements/1.1/"><rdf:Description><dc:creator>RealFaviconGenerator</dc:creator><dc:source>https://realfavicongenerator.net</dc:source></rdf:Description></rdf:RDF></metadata><path fill="#010203" transform="translate(-0.000244141 0)" d="M161.82 127.204C149.459 114.75 135.111 103.236 122.916 90.5711C101.825 68.6675 79.2064 47.7986 60.1931 24.0586C57.3445 20.5018 51.6105 12.7746 56.5354 9.02969C60.8508 8.20226 69.5175 11.7224 73.4798 13.3876C90.8296 20.679 109.059 25.7053 126.342 33.1438C140.548 39.2578 154.34 46.2618 168.183 53.1209C190.445 63.9627 212.548 75.128 234.485 86.6134C256.204 97.7625 280.993 112.315 303.108 121.587C299.765 106.583 298.099 90.0715 296.544 74.7299C296.327 72.5894 296.376 69.7868 297.904 68.1939C302.895 67.6246 313.019 78.6524 317.767 81.9758C334.827 93.9193 349.927 108.567 366.303 121.292C358.487 95.2328 352.923 70.6316 353.6 43.3708C353.691 39.7086 352.276 27.5442 356.248 26.2C359.998 28.3635 369.615 39.8061 373.358 43.7688C387.665 58.9126 400.344 75.3299 413.431 91.5216C425.091 105.841 436.669 120.226 448.166 134.676L468.125 159.894C474.723 168.352 479.901 176.524 488.959 182.463C497.751 188.229 506.531 194.305 515.176 200.285L596.324 256.702C596.725 250.829 598.197 244.696 599.346 238.926C604.831 211.374 614.744 179.505 631.065 156.426C638.462 145.965 647.084 136.614 655.475 126.966C660.766 120.883 665.813 114.434 671.462 108.684C680.953 99.0258 697.984 86.4991 710.366 81.4209C718.102 78.2482 726.518 76.2935 734.565 74.0348C744.374 71.2815 754.556 68.0319 764.601 66.3694C769.596 65.5428 774.585 65.9089 779.596 66.3869C788.444 67.2308 846.978 76.0308 852.136 78.7906C857.923 81.8868 863.227 86.5479 868.464 90.4863C882.751 101.229 896.51 112.764 910.955 123.263C933.193 124.62 983.187 125.152 1002.54 134.897C995.766 140.894 963.58 154.544 953.311 157.681C944.234 160.572 924.029 162.797 916.986 168.556C902.426 180.462 888.419 212.297 882.425 229.832C877.113 245.37 875.778 277.347 878.329 293.485C881.401 312.912 890.291 335.265 895.84 354.357C897.957 361.454 906.591 383.523 906.789 389.041C907.151 399.104 905.192 419.028 904.377 429.495C903.083 446.29 901.693 463.079 900.208 479.859C899.437 488.623 898.84 499.952 897.427 508.342C896.364 514.658 886.3 530.286 882.898 536.319C877.825 545.418 872.883 554.59 868.074 563.832C863.736 572.043 859.456 580.284 855.233 588.556C852.594 593.693 850.1 599.309 846.731 604.013C839.831 613.647 763.609 688.78 754.654 693.824C747.127 698.063 734.702 701.703 726.19 705.236C714.649 710.026 703.519 715.838 691.821 720.256C667.437 729.466 642.315 736.458 617.546 744.511C632.817 753.098 648.333 760.253 663.792 768.415L689.809 781.885C693.702 783.915 704.049 790.075 707.799 790.948C725.746 795.151 745.085 794.566 763.417 796.941C782.438 799.406 791.67 796.423 796.442 818.115C813.845 830.482 819.069 842.482 817.452 863.577C817.328 865.204 817.283 865.971 816.056 866.976C813.683 865.962 812.27 860.65 811.353 858.11C806.779 845.445 794.049 837.566 782.557 831.865C783.89 840.597 783.662 847.529 780.572 855.906C779.555 858.665 779.024 863.062 775.893 863.748C774.837 861.632 775.448 853.359 774.461 850.198C771.868 841.89 760.862 831.308 753.83 827.171C751.178 825.611 738.473 822.782 735.193 821.965C720.603 818.33 709.295 812.636 693.972 815.349C688.134 816.028 682.573 817.053 677.009 818.947C658.05 825.4 652.331 830.766 643.759 847.959C642.38 845.38 640.522 841.987 638.055 840.358C630.483 835.358 621.666 840.885 617.214 847.463C626.296 854.81 634.68 854.594 645.748 855.443C656.446 856.273 667.149 857.038 677.857 857.737C686.118 858.279 694.406 858.54 702.033 860.105C715.055 862.778 717.114 866.76 721.377 878.478C721.636 879.189 727.124 884.869 728.324 886.013C738.553 895.756 741.428 908.698 740.657 922.405C740.586 924.253 740.378 927.801 738.961 929.13C736.436 927.632 735.772 920.51 734.124 917.284C728.118 905.53 716.25 899.629 704.941 895.001C706.589 902.886 706.227 920.531 699.887 925.98L699.018 925.823C697.995 923.594 698.382 921.543 698.945 919.182C699.157 914.945 698.91 913.565 697.442 909.581C696.457 907.964 679.979 889.96 679.068 889.538C668.182 884.502 653.041 882.515 641.315 878.809C621.352 872.787 600.087 875.814 582.291 886.283C571.501 892.631 568.149 898.915 562.872 909.964C558.746 899.607 555.354 897.702 544.445 901.403C536.633 904.054 534.619 913.212 530.825 915.876L530.135 915.507C528.893 908.711 529.804 900.414 533.892 894.767C540.957 885.009 549.851 882.089 561.266 881.439C565.238 878.266 569.343 874.998 573.67 872.324C581.833 867.28 592.617 863.902 598.168 855.688C594.56 849.919 579.55 839.298 573.919 834.615C550.291 814.966 525.043 796.828 501.268 777.353C494.8 772.054 482.808 763.353 477.266 758.124C460.859 764.384 441.279 770.26 424.325 775.553L339.722 801.875L293.03 874.308C286.658 884.282 280.39 894.322 274.225 904.425C266.83 916.637 260.861 928.139 251.833 939.371C240.323 953.69 228.945 967.366 213.154 977.328C207.489 980.967 200.398 986.488 193.362 986.67L192.833 986.648C189.758 986.362 189.191 985.861 186.453 984.45C186.407 978.462 186.634 976.442 188.204 970.668C176.221 981.686 165.414 1002.55 147.392 1002.41C139.662 1002.36 142.109 989.122 143.004 984.245C143.361 982.358 143.743 980.477 144.152 978.601C135.132 984.743 125.994 990.941 116.953 997.035C112.177 1000.25 101.487 1010.13 96.6177 1010.61L95.8887 1010.72C92.3089 1006.59 93.2557 1001.09 93.3338 995.973C93.3927 992.118 93.7485 984.845 95.9198 981.71C101.737 973.311 107.959 965.112 114.036 956.886C124.233 942.826 134.503 928.819 144.844 914.866L222.452 808.112C235.12 790.723 248.432 773.692 260.956 756.186C265.715 749.534 270.071 741.562 274.321 734.489L298.406 694.72L381.747 560.501C359.093 557.075 326.892 566.045 313.04 541.97C304.393 526.942 304.294 519.244 307.974 502.825C293.862 488.995 288.457 477.879 293.238 458.215C289.25 453.379 284.965 449.956 282.834 443.576C279.434 433.4 282.745 420.095 287.115 410.723C263.693 404.525 254.23 396.579 248.343 373.185C226.588 370.303 214.27 356.41 217.153 334.121C193.354 326.137 187.192 317.466 184.873 293.056C176.878 289.773 169.314 285.826 161.88 281.436C153.246 276.337 107.195 245.093 106.513 238.257C106.437 237.498 106.416 236.798 106.923 236.193C110.536 231.882 136.498 231.308 142.628 230.823C131.985 225.81 121.188 220.37 111.603 213.513C101.9 206.571 93.1012 198.314 84.0294 190.581C75.9772 183.718 66.7817 176.948 59.7885 169.012C58.8097 167.902 58.1927 166.62 58.0041 165.146C57.8236 163.735 58.0569 162.114 59.1475 161.093C64.7668 155.831 112.826 163.729 121.45 164.827C95.941 150.232 66.8596 137.207 45.0119 117.808C40.0299 113.327 30.0221 105.022 29.4947 98.0148C28.9453 90.7159 47.8891 96.0314 51.7758 96.797C68.6457 100.133 85.3903 104.073 101.977 108.611C122.218 114.363 141.775 121.138 161.82 127.204ZM537.731 756.44C531.239 756.996 524.756 757.64 518.281 758.371C529.793 770.392 541.443 780.72 552.769 792.231C559.017 797.56 566.409 804.79 572.558 810.494L611.094 846.313C616.494 829.171 622.917 822.75 641.213 821.969C648.169 816.769 656.56 810.538 664.202 806.517C668.726 804.136 675.021 801.836 679.891 799.627C672.293 787.853 663.174 784.452 650.974 778.441C632.446 768.696 607.353 756.52 588.128 748.044C579.824 752.789 572.321 752.652 563.049 753.602C554.599 754.45 546.159 755.397 537.731 756.44Z"></path><defs><linearGradient id="gradient_0" gradientUnits="userSpaceOnUse" x1="439.71756" y1="510.30066" x2="788.84485" y2="331.18979"><stop offset="0" stop-color="#009FD5"></stop><stop offset="1" stop-color="#02C4D1"></stop></linearGradient></defs><path fill="url(#gradient_0)" transform="translate(-0.000244141 0)" d="M453.35 338.593C464.935 336.702 487.271 335.727 499.952 334.686L593.952 326.833L713.674 316.735C734.225 314.997 760.552 312.008 780.813 311.509C776.753 324.543 770.575 338.135 765.579 351.014L737.17 425.267L714.836 484.654C711.849 492.657 706.693 508.013 703.165 514.997C688.646 523.503 670.137 536.444 655.42 545.83L559.349 606.995L525.32 629.177C520.118 632.578 510.765 638.931 505.559 641.679L505.49 641.928L504.728 641.892C495.883 638.549 485.929 634.025 477.123 630.297L429.325 610.25C411.592 602.855 385.057 593.156 369.214 584.341C374.23 575.748 380.003 566.943 385.349 558.504C369.336 558.542 334.089 559.643 321.53 549.995C321.646 549.887 321.759 549.774 321.879 549.67C328.043 544.321 344.941 514.146 350.191 505.491C373.663 466.554 397.391 427.771 421.373 389.146L439.523 359.808C443.452 353.412 448.764 344.346 453.35 338.593Z"></path><path fill="#01C2D9" transform="translate(-0.000244141 0)" d="M321.53 549.995C321.646 549.887 321.759 549.774 321.879 549.67C328.043 544.321 344.941 514.146 350.191 505.491C373.663 466.554 397.391 427.771 421.373 389.146L439.523 359.808C443.452 353.412 448.764 344.346 453.35 338.593C455.507 347.715 456.855 357.282 458.392 366.55L464.587 402.844L486.236 527.902L499.82 606.536L503.824 629.975C504.263 632.6 505.492 639.317 505.559 641.679L505.49 641.928L504.728 641.892C495.883 638.549 485.929 634.025 477.123 630.297L429.325 610.25C411.592 602.855 385.057 593.156 369.214 584.341C374.23 575.748 380.003 566.943 385.349 558.504C369.336 558.542 334.089 559.643 321.53 549.995Z"></path><path fill="#00D6CD" transform="translate(-0.000244141 0)" d="M363.636 133.433C377.942 137.054 392.283 139.032 406.796 141.745C421.511 144.496 436.4 147.967 451.273 149.671C453.596 149.937 455.282 150.073 457.509 149.314C465.932 158.748 472.458 169.636 481.022 178.475C484.441 182.003 494.14 188.144 498.546 191.052C505.762 195.766 512.915 200.573 520.006 205.472L597.233 259.503C600.374 242.072 603.799 222.881 609.086 206.088C611.965 196.946 617.432 185.383 621.499 176.674C631.113 184.449 640.436 193.537 649.988 201.59L726.03 264.84C736.829 273.864 747.676 282.831 758.571 291.74C762.004 294.536 779.265 308.326 781.195 310.975L780.813 311.509C760.552 312.008 734.225 314.997 713.674 316.735L593.952 326.833L499.952 334.686C487.271 335.727 464.935 336.702 453.35 338.593C448.764 344.346 443.452 353.412 439.523 359.808L421.373 389.146C397.391 427.771 373.663 466.554 350.191 505.491C344.941 514.146 328.043 544.321 321.879 549.67C321.759 549.774 321.646 549.887 321.53 549.995C318.413 546.849 315.675 543.348 313.374 539.563C305.814 526.988 306.489 516.278 309.873 502.462C294.625 488.329 289.86 477.832 295.352 457.513C278.039 441.523 281.687 429.236 289.5 409.623C264.713 403.174 256.425 396.936 249.693 371.965C232.677 369.344 220.435 361.708 218.413 343.276L218.647 332.614L211.422 330.332C213.619 326.801 221.563 317.036 224.42 313.305L253.267 275.825L317.52 192.753C321.65 187.399 342.019 159.942 345.371 157.645C353.151 160.88 360.905 164.177 368.633 167.534C371.924 168.951 380.114 172.628 383.124 173.305C381.949 169.881 377.626 161.244 375.935 157.874L363.636 133.433Z"></path><path fill="#01F1D3" transform="translate(-0.000244141 0)" d="M211.422 330.332C213.619 326.801 221.563 317.036 224.42 313.305L253.267 275.825L317.52 192.753C321.65 187.399 342.019 159.942 345.371 157.645C353.151 160.88 360.905 164.177 368.633 167.534C371.924 168.951 380.114 172.628 383.124 173.305L383.512 173.801C388.447 188.999 398.498 210.797 404.938 225.853L437.916 303.49C442.726 314.672 449.09 327.106 453.075 338.462C396.292 340.29 339.499 341.795 282.7 342.978C268.13 343.312 253.557 343.461 238.984 343.425C236.116 343.417 220.457 343.04 218.413 343.276L218.647 332.614L211.422 330.332Z"></path><path fill="#0486CF" transform="translate(-0.000244141 0)" d="M363.636 133.433C377.942 137.054 392.283 139.032 406.796 141.745C421.511 144.496 436.4 147.967 451.273 149.671C453.596 149.937 455.282 150.073 457.509 149.314C465.932 158.748 472.458 169.636 481.022 178.475C484.441 182.003 494.14 188.144 498.546 191.052C505.762 195.766 512.915 200.573 520.006 205.472L597.233 259.503L596.237 260.008C592.305 259.961 460.525 204.229 448.699 199.402C427.061 190.638 405.331 182.104 383.512 173.801L383.124 173.305C381.949 169.881 377.626 161.244 375.935 157.874L363.636 133.433Z"></path><defs><linearGradient id="gradient_1" gradientUnits="userSpaceOnUse" x1="381.55264" y1="696.37335" x2="518.28973" y2="852.72791"><stop offset="0" stop-color="#0066D0"></stop><stop offset="1" stop-color="#0088DC"></stop></linearGradient></defs><path fill="url(#gradient_1)" transform="translate(-0.000244141 0)" d="M369.214 584.341C385.057 593.156 411.592 602.855 429.325 610.25L477.123 630.297C485.929 634.025 495.883 638.549 504.728 641.892L505.49 641.928C507.436 651.777 511.868 665.177 514.79 675.19L529.327 725.636C531.954 734.533 536.207 747.578 537.731 756.44C531.239 756.996 524.756 757.64 518.281 758.371C529.793 770.392 541.443 780.72 552.769 792.231C553.591 800.822 559.341 814.029 558.842 820.082C567.281 827.857 577.022 834.528 585.801 841.905C589.881 845.333 599.11 851.068 599.687 856.389C602.461 858.913 611.986 861.915 615.738 863.509C624.827 867.371 634.585 871 643.747 874.56C648.673 876.475 666.075 881.297 668.161 884.53C672.601 885.564 675.418 886.123 679.626 887.771L680.208 888.463C685.141 894.271 696.988 903.198 697.442 909.581C696.457 907.964 679.979 889.96 679.068 889.538C668.182 884.502 653.041 882.515 641.315 878.809C621.352 872.787 600.087 875.814 582.291 886.283C571.501 892.631 568.149 898.915 562.872 909.964C558.746 899.607 555.354 897.702 544.445 901.403C536.633 904.054 534.619 913.212 530.825 915.876L530.135 915.507C528.893 908.711 529.804 900.414 533.892 894.767C540.957 885.009 549.851 882.089 561.266 881.439C565.238 878.266 569.343 874.998 573.67 872.324C581.833 867.28 592.617 863.902 598.168 855.688C594.56 849.919 579.55 839.298 573.919 834.615C550.291 814.966 525.043 796.828 501.268 777.353C494.8 772.054 482.808 763.353 477.266 758.124C460.859 764.384 441.279 770.26 424.325 775.553L339.722 801.875L293.03 874.308C286.658 884.282 280.39 894.322 274.225 904.425C266.83 916.637 260.861 928.139 251.833 939.371C240.323 953.69 228.945 967.366 213.154 977.328C207.489 980.967 200.398 986.488 193.362 986.67C196.47 984.905 200.158 983.597 204.07 981.313C218.718 972.76 232.497 961.301 242.609 947.638C254.56 935.537 261.896 921.813 270.676 907.563C278.985 894.081 287.362 880.641 295.806 867.244C293.779 861.268 291.634 843.994 290.611 837.166C287.825 818.554 284.961 799.576 282.923 780.876C277.325 777.297 264.895 766.106 259.669 761.269C272.034 742.681 281.839 723.673 293.896 705.055C303.097 688.725 314.87 671.687 324.767 655.611C339.342 631.936 353.772 607.414 369.214 584.341Z"></path><path fill="#0486CF" transform="translate(-0.000244141 0)" d="M369.214 584.341C385.057 593.156 411.592 602.855 429.325 610.25L477.123 630.297C485.929 634.025 495.883 638.549 504.728 641.892C492.027 651.077 472.226 662.597 458.566 671.05L385.785 716.592L316.112 760.496C307.976 765.581 291.496 776.504 283.393 780.63L283.436 780.84L282.923 780.876C277.325 777.297 264.895 766.106 259.669 761.269C272.034 742.681 281.839 723.673 293.896 705.055C303.097 688.725 314.87 671.687 324.767 655.611C339.342 631.936 353.772 607.414 369.214 584.341Z"></path><path fill="#01C2D9" transform="translate(-0.000244141 0)" d="M293.896 705.055C295.641 707.028 294.837 711.355 294.475 713.934C293.353 721.93 291.848 729.959 290.467 737.911L283.393 780.63L283.436 780.84L282.923 780.876C277.325 777.297 264.895 766.106 259.669 761.269C272.034 742.681 281.839 723.673 293.896 705.055Z"></path><path fill="#010203" transform="translate(-0.000244141 0)" d="M477.198 756.796C493.267 767.91 509.001 782.38 524.896 794.044C536.329 802.435 546.788 812.212 558.842 820.082C567.281 827.857 577.022 834.528 585.801 841.905C589.881 845.333 599.11 851.068 599.687 856.389C602.461 858.913 611.986 861.915 615.738 863.509C624.827 867.371 634.585 871 643.747 874.56C648.673 876.475 666.075 881.297 668.161 884.53C672.601 885.564 675.418 886.123 679.626 887.771L680.208 888.463C685.141 894.271 696.988 903.198 697.442 909.581C696.457 907.964 679.979 889.96 679.068 889.538C668.182 884.502 653.041 882.515 641.315 878.809C621.352 872.787 600.087 875.814 582.291 886.283C571.501 892.631 568.149 898.915 562.872 909.964C558.746 899.607 555.354 897.702 544.445 901.403C536.633 904.054 534.619 913.212 530.825 915.876L530.135 915.507C528.893 908.711 529.804 900.414 533.892 894.767C540.957 885.009 549.851 882.089 561.266 881.439C565.238 878.266 569.343 874.998 573.67 872.324C581.833 867.28 592.617 863.902 598.168 855.688C594.56 849.919 579.55 839.298 573.919 834.615C550.291 814.966 525.043 796.828 501.268 777.353C494.8 772.054 482.808 763.353 477.266 758.124C460.859 764.384 441.279 770.26 424.325 775.553L339.722 801.875L293.03 874.308C286.658 884.282 280.39 894.322 274.225 904.425C266.83 916.637 260.861 928.139 251.833 939.371C240.323 953.69 228.945 967.366 213.154 977.328C207.489 980.967 200.398 986.488 193.362 986.67C196.47 984.905 200.158 983.597 204.07 981.313C218.718 972.76 232.497 961.301 242.609 947.638C254.56 935.537 261.896 921.813 270.676 907.563C278.985 894.081 287.362 880.641 295.806 867.244C293.779 861.268 291.634 843.994 290.611 837.166C287.825 818.554 284.961 799.576 282.923 780.876L283.436 780.84C301.101 785.407 320.637 788.104 338.482 792.346C343.106 793.445 348.336 793.485 351.86 796.877L434.402 770.422C448.227 765.997 463.337 760.814 477.198 756.796Z"></path><path fill="#0057D2" transform="translate(-0.000244141 0)" d="M282.923 780.876L283.436 780.84C301.101 785.407 320.637 788.104 338.482 792.346C343.106 793.445 348.336 793.485 351.86 796.877C347.674 798.154 343.156 799.44 339.035 800.834C334.022 806.229 327.756 817.963 323.42 824.463C314.147 838.365 305.189 853.505 295.806 867.244C293.779 861.268 291.634 843.994 290.611 837.166C287.825 818.554 284.961 799.576 282.923 780.876Z"></path><path fill="#0129C7" transform="translate(-0.000244141 0)" d="M599.687 856.389C602.461 858.913 611.986 861.915 615.738 863.509C624.827 867.371 634.585 871 643.747 874.56C648.673 876.475 666.075 881.297 668.161 884.53C644.287 879.327 624.792 869.364 599.298 877.533C593.838 879.282 588.787 881.524 583.507 883.735C581.858 881.849 575.205 876.844 572.705 874.763C581.97 866.985 591.274 868.055 599.687 856.389Z"></path><path fill="#0057D2" transform="translate(-0.000244141 0)" d="M572.705 874.763C575.205 876.844 581.858 881.849 583.507 883.735C573.179 888.659 568.167 895.361 563.263 905.266C553.19 890.781 539.208 900.167 531.958 911.945L531.54 912.634L531.052 912.312C530.755 906.652 533.643 897.815 537.2 893.31C543.635 885.161 552.711 884.047 562.126 882.867L572.705 874.763Z"></path><defs><linearGradient id="gradient_2" gradientUnits="userSpaceOnUse" x1="846.85199" y1="328.76193" x2="793.17969" y2="536.42053"><stop offset="0" stop-color="#0079CF"></stop><stop offset="1" stop-color="#0096D7"></stop></linearGradient></defs><path fill="url(#gradient_2)" transform="translate(-0.000244141 0)" d="M781.195 310.975C781.542 310.959 781.889 310.944 782.236 310.928C789.092 315.564 795.913 320.179 802.884 324.652L876.396 371.368C881.801 374.821 901.221 387.871 905.836 389.545C906.246 393.549 905.432 401.749 905.103 406.017L903.019 432.659C901.751 449.51 900.377 466.353 898.897 483.187C898.104 491.847 897.714 507.368 893.728 514.385C886.227 513.279 869.209 513.819 861.187 513.895L802.418 514.46L734.616 515.055C728.12 515.094 708.972 514.495 703.445 515.058L703.165 514.997C706.693 508.013 711.849 492.657 714.836 484.654L737.17 425.267L765.579 351.014C770.575 338.135 776.753 324.543 780.813 311.509L781.195 310.975Z"></path><path fill="#00ABCE" transform="translate(-0.000244141 0)" d="M622.646 174.292C634.148 175.97 651.553 176.395 663.551 177.034C687.132 178.197 710.706 179.491 734.273 180.916L790.137 184.338C797.796 184.845 816.127 186.483 822.785 185.719C825.627 184.921 835.551 183.974 838.987 183.691C861.423 181.843 884.863 176.988 907.209 175.663C887.003 209.01 874.567 234.474 876.408 274.273C876.781 282.324 875.601 290.342 877.849 298.508C883.47 318.926 889.66 339.131 896.239 359.239C898.314 365.58 905.043 384.236 905.836 389.545C901.221 387.871 881.801 374.821 876.396 371.368L802.884 324.652C795.913 320.179 789.092 315.564 782.236 310.928C781.889 310.944 781.542 310.959 781.195 310.975C779.265 308.326 762.004 294.536 758.571 291.74C747.676 282.831 736.829 273.864 726.03 264.84L649.988 201.59C640.436 193.537 631.113 184.449 621.499 176.674L622.646 174.292Z"></path><path fill="#00D6CD" transform="translate(-0.000244141 0)" d="M312.163 138.7C320.229 143.375 337.918 155.327 345.371 157.645C342.019 159.942 321.65 187.399 317.52 192.753L253.267 275.825L224.42 313.305C221.563 317.036 213.619 326.801 211.422 330.332C191.578 322.89 188.456 311.599 186.44 291.961C182.778 290.525 180.887 289.715 177.451 287.84C177.849 286.544 177.975 285.762 177.547 284.432C170.777 263.226 162.176 242.597 154.916 221.56C148.265 202.287 141.131 183.257 133.802 164.234C131.533 158.345 129.602 152.217 127.679 146.2C135.877 147.315 148.928 146.249 157.69 145.826L203.252 143.584C224.945 142.579 246.647 141.751 268.355 141.1C276.266 140.856 306.292 140.962 312.163 138.7Z"></path><path fill="#0486CF" transform="translate(-0.000244141 0)" d="M703.165 514.997L703.445 515.058C704.967 527.202 707.333 539.363 709.322 551.453C713.033 574.983 717.075 598.46 721.445 621.876C726.031 647.109 730.258 674.919 735.713 699.765L716.412 707.999C711.851 705.035 689.246 698.428 682.874 696.458L627.881 679.499L548.066 654.93C534.535 650.758 518.966 645.414 505.49 641.928L505.559 641.679C510.765 638.931 520.118 632.578 525.32 629.177L559.349 606.995L655.42 545.83C670.137 536.444 688.646 523.503 703.165 514.997Z"></path><defs><linearGradient id="gradient_3" gradientUnits="userSpaceOnUse" x1="179.12878" y1="821.64771" x2="260.18622" y2="932.72931"><stop offset="0" stop-color="#0179D2"></stop><stop offset="1" stop-color="#0094E1"></stop></linearGradient></defs><path fill="url(#gradient_3)" transform="translate(-0.000244141 0)" d="M259.669 761.269C264.895 766.106 277.325 777.297 282.923 780.876C284.961 799.576 287.825 818.554 290.611 837.166C291.634 843.994 293.779 861.268 295.806 867.244C287.362 880.641 278.985 894.081 270.676 907.563C261.896 921.813 254.56 935.537 242.609 947.638C232.497 961.301 218.718 972.76 204.07 981.313C200.158 983.597 196.47 984.905 193.362 986.67L192.833 986.648C189.758 986.362 189.191 985.861 186.453 984.45C186.407 978.462 186.634 976.442 188.204 970.668C176.221 981.686 165.414 1002.55 147.392 1002.41C139.662 1002.36 142.109 989.122 143.004 984.245C143.361 982.358 143.743 980.477 144.152 978.601C135.132 984.743 125.994 990.941 116.953 997.035C112.177 1000.25 101.487 1010.13 96.6177 1010.61L95.8887 1010.72C95.5667 1008.64 95.2779 1006.56 95.0224 1004.47C93.2078 988.601 96.0397 983.355 105.385 971.556C109.928 964.16 124.197 945.27 129.931 938.328C134.659 930.712 141.838 921.685 147.288 914.307L175.484 875.702C203.537 837.123 230.37 798.966 259.669 761.269Z"></path><path fill="#0057D2" transform="translate(-0.000244141 0)" d="M105.385 971.556C109.928 964.16 124.197 945.27 129.931 938.328C134.537 939.625 151.695 940.093 157.811 940.583L209.473 944.862C220.32 945.735 231.88 946.345 242.609 947.638C232.497 961.301 218.718 972.76 204.07 981.313C200.158 983.597 196.47 984.905 193.362 986.67L192.833 986.648C189.758 986.362 189.191 985.861 186.453 984.45C186.407 978.462 186.634 976.442 188.204 970.668C176.221 981.686 165.414 1002.55 147.392 1002.41C139.662 1002.36 142.109 989.122 143.004 984.245C143.361 982.358 143.743 980.477 144.152 978.601C135.132 984.743 125.994 990.941 116.953 997.035C112.177 1000.25 101.487 1010.13 96.6177 1010.61L95.8887 1010.72C95.5667 1008.64 95.2779 1006.56 95.0224 1004.47C93.2078 988.601 96.0397 983.355 105.385 971.556Z"></path><path fill="#0486CF" transform="translate(-0.000244141 0)" d="M105.385 971.556C108.065 976.767 110.041 991.285 112.237 998.497C108.898 1000.84 98.7829 1007.77 96.6177 1010.61L95.8887 1010.72C95.5667 1008.64 95.2779 1006.56 95.0224 1004.47C93.2078 988.601 96.0397 983.355 105.385 971.556Z"></path><path fill="#010203" transform="translate(-0.000244141 0)" d="M146.685 974.918C145.087 980.922 140.673 999.596 146.759 1001.13C159.922 1004.46 186.239 970.809 192.325 963.724C190.607 968.772 186.646 978.3 188.612 983.292C189.42 985.343 190.917 985.812 192.833 986.648C189.758 986.362 189.191 985.861 186.453 984.45C186.407 978.462 186.634 976.442 188.204 970.668C176.221 981.686 165.414 1002.55 147.392 1002.41C139.662 1002.36 142.109 989.122 143.004 984.245C143.361 982.358 143.743 980.477 144.152 978.601C135.132 984.743 125.994 990.941 116.953 997.035C112.177 1000.25 101.487 1010.13 96.6177 1010.61C98.7829 1007.77 108.898 1000.84 112.237 998.497C122.485 991.79 137.517 982.397 146.685 974.918Z"></path><path fill="#0057D2" transform="translate(-0.000244141 0)" d="M703.445 515.058C708.972 514.495 728.12 515.094 734.616 515.055L802.418 514.46L861.187 513.895C869.209 513.819 886.227 513.279 893.728 514.385C878.235 543.056 861.873 573.513 846.225 602.179C842.893 608.283 821.651 628.223 815.397 634.495C802.413 647.597 789.227 660.497 775.843 673.19C761.252 687.139 755.921 694.167 735.713 699.765C730.258 674.919 726.031 647.109 721.445 621.876C717.075 598.46 713.033 574.983 709.322 551.453C707.333 539.363 704.967 527.202 703.445 515.058Z"></path><path fill="#01F1D3" transform="translate(-0.000244141 0)" d="M92.1899 22.1416C137.746 37.6525 179.041 60.5922 222.114 81.7683C227.833 84.5802 256.511 99.2442 259.984 102.174C262.322 107.594 304.646 133.305 312.163 138.7C306.292 140.962 276.266 140.856 268.355 141.1C246.647 141.751 224.945 142.579 203.252 143.584L157.69 145.826C148.928 146.249 135.877 147.315 127.679 146.2C129.602 152.217 131.533 158.345 133.802 164.234C141.131 183.257 148.265 202.287 154.916 221.56C162.176 242.597 170.777 263.226 177.547 284.432C177.975 285.762 177.849 286.544 177.451 287.84C166.879 283.156 110.372 247.489 109.406 238.024C113.882 232.756 141.764 232.641 149.642 232.003C135.2 225.646 119.825 217.812 107.216 208.245C98.6505 201.745 90.8713 194.362 82.716 187.376C75.9091 181.546 67.7487 175.867 61.9706 168.999C61.0132 167.861 60.0633 166.483 60.021 164.935C59.9923 163.888 60.4827 162.847 61.3424 162.237C67.7668 157.676 119.925 165.931 130.278 168.105C99.6006 147.841 59.1089 134.71 34.8374 105.213C33.0622 103.056 31.6005 100.693 31.6447 97.8269C32.0123 97.1416 32.1905 96.4699 32.8998 96.0697C41.6139 91.1534 152.24 125.418 167.728 130.857C146.679 109.368 124.668 91.0637 103.355 68.3849C105.703 61.5649 90.5183 30.192 92.1899 22.1416Z"></path><path fill="#01F1D3" transform="translate(-0.000244141 0)" d="M622.646 174.292C632.962 151.842 656.834 127.508 673.378 108.588C678.067 103.224 699.797 87.2888 706.214 84.8657C726.196 77.3204 749.793 70.3824 771.092 67.4889C775.463 66.8686 786.542 69.0483 791.153 69.7872C792.258 75.9496 796.099 88.0891 797.862 94.7439C803.153 114.68 808.558 134.585 814.077 154.46C816.571 163.404 820.876 177.026 822.785 185.719C816.127 186.483 797.796 184.845 790.137 184.338L734.273 180.916C710.706 179.491 687.132 178.197 663.551 177.034C651.553 176.395 634.148 175.97 622.646 174.292Z"></path><path fill="#0057D2" transform="translate(-0.000244141 0)" d="M505.49 641.928C518.966 645.414 534.535 650.758 548.066 654.93L627.881 679.499L682.874 696.458C689.246 698.428 711.851 705.035 716.412 707.999C702.625 714.297 689.711 720.043 675.262 724.877C655.551 731.472 633.913 736.798 614.741 744.572C624.489 750.91 642.556 759.483 653.457 764.904C652.494 768.917 652.226 775.504 650.974 778.441C632.446 768.696 607.353 756.52 588.128 748.044C579.824 752.789 572.321 752.652 563.049 753.602C554.599 754.45 546.159 755.397 537.731 756.44C536.207 747.578 531.954 734.533 529.327 725.636L514.79 675.19C511.868 665.177 507.436 651.777 505.49 641.928Z"></path><path fill="#01C2D9" transform="translate(-0.000244141 0)" d="M791.153 69.7872C803.225 71.9019 815.4 73.5766 827.523 75.3862C834.211 76.3845 841.291 76.9931 847.764 78.9409C859.696 82.5315 898.082 115.192 910.422 124.946C938.906 125.098 972.507 127.458 1000.01 135.023C986.101 141.888 969.414 150.729 954.98 155.664C944.428 159.272 929.85 160.187 919.17 165.358C914.362 167.686 910.721 171.771 907.209 175.663C884.863 176.988 861.423 181.843 838.987 183.691C835.551 183.974 825.627 184.921 822.785 185.719C820.876 177.026 816.571 163.404 814.077 154.46C808.558 134.585 803.153 114.68 797.862 94.7439C796.099 88.0891 792.258 75.9496 791.153 69.7872Z"></path><path fill="#010203" transform="translate(-0.000244141 0)" d="M588.128 748.044C607.353 756.52 632.446 768.696 650.974 778.441C663.174 784.452 672.293 787.853 679.891 799.627C675.021 801.836 668.726 804.136 664.202 806.517C656.56 810.538 648.169 816.769 641.213 821.969C622.917 822.75 616.494 829.171 611.094 846.313L572.558 810.494C566.409 804.79 559.017 797.56 552.769 792.231C541.443 780.72 529.793 770.392 518.281 758.371C524.756 757.64 531.239 756.996 537.731 756.44C546.159 755.397 554.599 754.45 563.049 753.602C572.321 752.652 579.824 752.789 588.128 748.044ZM522.111 759.666C547.189 784.652 572.826 809.069 599.003 832.899C600.368 834.129 609.193 842.373 610.215 842.867C610.848 842.104 610.715 842.472 610.852 841.88C614.877 828.25 625.844 820.536 639.969 820.792L640.477 820.464C644.321 817.939 647.502 814.998 651.253 812.388C659.471 806.67 668.356 802.601 677.762 799.271C675.134 795.966 671.25 791.184 667.527 789.024C652.417 780.258 635.284 772.583 619.501 764.978C611.843 761.289 595.325 752.379 588.461 750.058C582.933 754.349 572.331 753.841 565.377 754.858C551.307 756.916 536.045 757.453 522.111 759.666Z"></path><defs><linearGradient id="gradient_4" gradientUnits="userSpaceOnUse" x1="666.14081" y1="768.40344" x2="643.7536" y2="881.48956"><stop offset="0" stop-color="#013FCF"></stop><stop offset="1" stop-color="#005CD2"></stop></linearGradient></defs><path fill="url(#gradient_4)" transform="translate(-0.000244141 0)" d="M653.457 764.904C662.382 769.268 671.218 773.808 679.962 778.523C686.018 781.81 703.814 791.906 709.156 793.018C718.604 794.984 744.863 797.669 754.478 797.601C754.392 797.971 754.305 798.34 754.219 798.709C757.805 805.641 761.243 812.201 764.225 819.428C762.668 822.402 760.748 825.863 759.346 828.858C751.379 822.63 743.606 822.861 734.467 820.328C720.035 816.328 709.164 811.915 693.857 814.006C671.899 817.006 653.709 823.075 643.48 844.11C632.58 830.125 622.956 837.772 613.764 848.714C619.252 851.285 624.991 854.544 630.976 855.704C648.556 859.111 698.56 857.902 710.897 864.485C713.965 866.122 715.899 868.99 717.021 872.225C717.913 874.796 718.564 877.511 719.265 880.141C722.463 882.444 723.94 883.546 726.725 886.282C724.388 890.099 721.908 895.703 719.595 899.904C717.734 899.135 714.958 897.527 713.108 896.53C710.428 895.341 706.255 893.191 703.466 893.246C699.697 893.229 686.062 888.496 679.626 887.771C675.418 886.123 672.601 885.564 668.161 884.53C666.075 881.297 648.673 876.475 643.747 874.56C634.585 871 624.827 867.371 615.738 863.509C611.986 861.915 602.461 858.913 599.687 856.389C599.11 851.068 589.881 845.333 585.801 841.905C577.022 834.528 567.281 827.857 558.842 820.082C559.341 814.029 553.591 800.822 552.769 792.231C559.017 797.56 566.409 804.79 572.558 810.494L611.094 846.313C616.494 829.171 622.917 822.75 641.213 821.969C648.169 816.769 656.56 810.538 664.202 806.517C668.726 804.136 675.021 801.836 679.891 799.627C672.293 787.853 663.174 784.452 650.974 778.441C652.226 775.504 652.494 768.917 653.457 764.904Z"></path><path fill="#0486CF" transform="translate(-0.000244141 0)" d="M719.265 880.141C722.463 882.444 723.94 883.546 726.725 886.282C724.388 890.099 721.908 895.703 719.595 899.904C717.734 899.135 714.958 897.527 713.108 896.53C714.47 892.681 717.511 883.2 719.265 880.141Z"></path><path fill="#00ABCE" transform="translate(-0.000244141 0)" d="M298.502 68.902C314.565 81.5179 330.535 94.2524 346.409 107.104C351.601 111.337 364.091 122.856 369.189 125.438C373.411 122.853 397.778 85.9035 401.673 79.7566C420.153 102.803 439.623 125.938 457.509 149.314C455.282 150.073 453.596 149.937 451.273 149.671C436.4 147.967 421.511 144.496 406.796 141.745C392.283 139.032 377.942 137.054 363.636 133.433L375.935 157.874C377.626 161.244 381.949 169.881 383.124 173.305C380.114 172.628 371.924 168.951 368.633 167.534C360.905 164.177 353.151 160.88 345.371 157.645C337.918 155.327 320.229 143.375 312.163 138.7C304.646 133.305 262.322 107.594 259.984 102.174C275.102 109.252 289.492 118.561 305.406 124.281C301.928 109.23 298.364 84.2568 298.502 68.902Z"></path><path fill="#00D6CD" transform="translate(-0.000244141 0)" d="M355.634 27.8529C372.095 44.1323 387.474 61.4705 401.673 79.7566C397.778 85.9035 373.411 122.853 369.189 125.438C358.825 89.3289 353.004 65.7737 355.634 27.8529Z"></path><path fill="#0486CF" transform="translate(-0.000244141 0)" d="M754.478 797.601L756.359 797.971C763.405 798.108 774.597 799.214 781.722 800.518C791.147 804.809 793.859 808.676 794.641 819.152C814.538 833.188 815.78 841.997 816.048 865.453C809.431 847.463 807.17 845.192 790.895 834.399C791.041 834.036 791.266 832.934 791.365 832.506C789.452 828.003 772.766 820.363 767.316 817.352C765.765 817.393 765.734 817.988 764.225 819.428C761.243 812.201 757.805 805.641 754.219 798.709C754.305 798.34 754.392 797.971 754.478 797.601Z"></path><path fill="#0057D2" transform="translate(-0.000244141 0)" d="M756.359 797.971C763.405 798.108 774.597 799.214 781.722 800.518C778.945 805.346 770.981 812.572 766.786 816.537C763.246 810.385 759.77 804.195 756.359 797.971Z"></path><path fill="#00D6CD" transform="translate(-0.000244141 0)" d="M103.355 68.3849C95.1893 60.8523 52.4457 19.8022 57.3996 10.5068C60.433 9.82875 87.0548 20.2637 92.1899 22.1416C90.5183 30.192 105.703 61.5649 103.355 68.3849Z"></path><path fill="#00ABCE" transform="translate(-0.000244141 0)" d="M764.225 819.428C765.734 817.988 765.765 817.393 767.316 817.352C772.766 820.363 789.452 828.003 791.365 832.506C791.266 832.934 791.041 834.036 790.895 834.399C787.158 832.356 785.166 831.24 781.204 829.824C782.169 844.91 781.729 846.394 777.259 860.41C775.371 840.306 771.864 842.921 759.346 828.858C760.748 825.863 762.668 822.402 764.225 819.428Z"></path><path fill="#0129C7" transform="translate(-0.000244141 0)" d="M679.626 887.771C686.062 888.496 699.697 893.229 703.466 893.246C706.037 906.359 705.535 908.871 701.495 921.483L700.27 916.367L699.73 916.19C699.481 917.19 699.219 918.188 698.945 919.182C699.157 914.945 698.91 913.565 697.442 909.581C696.988 903.198 685.141 894.271 680.208 888.463L679.626 887.771Z"></path><path fill="#00ABCE" transform="translate(-0.000244141 0)" d="M726.725 886.282C732.346 892.53 735.766 898.398 738.249 906.529C733.725 905.237 729.984 904.114 725.321 903.324L719.595 899.904C721.908 895.703 724.388 890.099 726.725 886.282Z"></path><path fill="#0129C7" transform="translate(-0.000244141 0)" d="M725.321 903.324C729.984 904.114 733.725 905.237 738.249 906.529C739.723 911.271 739.104 920.204 738.928 925.42C734.799 914.2 733.143 911.886 725.321 903.324Z"></path><path fill="#010203" fill-opacity="0.011764706" transform="translate(-0.000244141 0)" d="M356.864 587.502C357.584 587.986 357.296 587.668 357.707 588.474C356.215 590.318 354.977 591.288 353.039 592.597C352.753 591.239 352.387 590.367 352.909 589.115C354.501 588.465 355.463 588.421 356.864 587.502Z"></path><path fill="#010203" fill-opacity="0.011764706" transform="translate(-0.000244141 0)" d="M963.922 122.792C964.496 122.871 964.909 123.009 965.469 123.161L965.342 123.779L963.196 125.038L962.198 125.459C962.3 124.226 962.913 123.966 963.922 122.792Z"></path></svg>